<?xml version="1.0" standalone="no"?>
<!DOCTYPE svg PUBLIC "-//W3C//DTD SVG 20010904//EN"
 "http://www.w3.org/TR/2001/REC-SVG-20010904/DTD/svg10.dtd">
<svg version="1.0" xmlns="http://www.w3.org/2000/svg"
 width="1024.000000pt" height="1024.000000pt" viewBox="0 0 1024.000000 1024.000000"
 preserveAspectRatio="xMidYMid meet">
<metadata>
Created by potrace 1.14, written by Peter Selinger 2001-2017
</metadata>
<g transform="translate(0.000000,1024.000000) scale(0.100000,-0.100000)"
fill="#000000" stroke="none">
<path d="M3160 7370 c-17 -17 -20 -33 -20 -119 0 -136 5 -141 128 -142 50 -1
92 -2 92 -4 0 -4 -351 -1051 -383 -1142 -14 -40 -24 -73 -22 -73 3 0 37 21 77
47 98 63 220 115 348 147 85 21 134 27 260 30 178 4 244 -8 420 -74 140 -52
132 -52 143 -5 14 63 98 329 106 338 4 4 636 7 1404 8 948 0 1407 4 1428 11
43 15 59 54 59 143 l0 75 -60 0 -59 0 30 83 c42 114 162 419 220 558 27 65 49
122 49 128 0 8 -574 11 -2100 11 -2087 0 -2100 0 -2120 -20z"/>
<path d="M3515 5949 c-110 -18 -312 -98 -402 -160 -158 -108 -309 -309 -374
-496 -53 -156 -62 -392 -19 -558 30 -120 116 -285 198 -380 52 -61 168 -167
210 -190 1 -1 -25 -60 -58 -131 -33 -71 -60 -133 -60 -139 0 -6 42 -9 110 -8
60 1 110 0 110 -2 0 -3 -45 -107 -101 -232 -96 -216 -143 -333 -134 -333 2 0
51 53 107 118 154 177 167 192 333 393 l154 186 93 2 c313 5 570 138 757 391
106 143 157 277 182 477 30 248 -74 582 -239 763 -127 141 -316 247 -522 295
-70 16 -260 18 -345 4z m-115 -313 c0 -2 -43 -95 -96 -207 -53 -112 -107 -228
-120 -256 l-23 -53 175 0 c95 0 174 -2 174 -4 0 -2 -50 -132 -111 -288 -61
-155 -122 -313 -136 -350 l-25 -68 -28 20 c-53 38 -148 150 -183 218 -61 116
-82 201 -81 332 0 134 17 210 71 318 66 132 173 238 315 315 47 25 68 32 68
23z m910 -361 c117 -237 81 -516 -97 -747 -92 -121 -237 -208 -383 -233 l-43
-7 48 68 c85 120 305 413 315 419 31 19 -5 25 -150 25 -88 0 -160 2 -160 4 0
12 284 448 358 550 l35 48 19 -23 c10 -13 36 -60 58 -104z"/>
<path d="M4673 5478 c91 -213 109 -291 113 -488 4 -188 -16 -292 -101 -512 -7
-17 48 -18 1063 -18 l1069 0 73 193 c40 105 78 201 83 212 6 11 12 27 14 35 1
8 28 83 59 165 84 223 144 394 144 411 0 12 -172 14 -1261 14 -1005 0 -1260
-3 -1256 -12z"/>
<path d="M4430 4162 c-78 -82 -168 -147 -275 -200 -138 -68 -308 -111 -438
-112 l-78 0 -134 -272 c-73 -150 -163 -340 -199 -422 -119 -265 -256 -587
-256 -602 0 -12 293 -14 2038 -14 2008 0 2037 0 2069 20 39 23 45 44 41 135
l-3 70 -57 3 c-32 2 -58 5 -58 7 0 6 169 440 244 629 31 77 56 143 56 148 0 4
-668 9 -1484 10 l-1484 3 53 130 c100 247 125 305 175 411 27 59 50 111 50
115 0 5 -44 9 -97 9 l-98 0 -65 -68z"/>
</g>
</svg>
